<?xml version="1.0" encoding="UTF-8"?>
<svg width="665px" height="215px" viewBox="0 0 665 215" version="1.1" xmlns="http://www.w3.org/2000/svg" xmlns:xlink="http://www.w3.org/1999/xlink">
    <!-- Generator: Sketch 53.1 (72631) - https://sketchapp.com -->
    <title>noun_Spider 1966_912324</title>
    <desc>Created with Sketch.</desc>
    <g id="Page-1" stroke="none" stroke-width="1" fill="none" fill-rule="evenodd">
        <g id="Sec-2" transform="translate(-115.000000, -436.000000)" fill="#000000" fill-rule="nonzero">
            <g id="noun_Spider-1966_912324" transform="translate(115.000000, 436.000000)">
                <path d="M131.285523,125.03638 C111.281335,125.03638 95.00839,141.340822 95.00839,161.383729 C95.00839,181.426636 111.281335,197.745001 131.285523,197.745001 C151.289711,197.745001 167.562656,181.426636 167.562656,161.383729 C167.562656,141.340822 151.289711,125.03638 131.285523,125.03638 Z M131.285523,189.732015 C115.686564,189.732015 102.992,177.005918 102.992,161.383729 C102.992,145.747616 115.686564,133.049366 131.285523,133.049366 C146.884482,133.049366 159.579047,145.747616 159.579047,161.383729 C159.579047,177.005918 146.884482,189.732015 131.285523,189.732015 Z" id="Shape"></path>
                <path d="M131.285523,148.504473 C124.191297,148.504473 118.424199,154.26881 118.424199,161.383729 C118.424199,168.498647 124.198246,174.276908 131.285523,174.276908 C138.372801,174.276908 144.146847,168.498647 144.146847,161.383729 C144.146847,154.26881 138.372801,148.504473 131.285523,148.504473 Z M131.285523,166.263923 C128.596527,166.263923 126.407809,164.07793 126.407809,161.383729 C126.407809,158.689528 128.589578,156.503535 131.285523,156.503535 C133.981468,156.503535 136.163238,158.689528 136.163238,161.383729 C136.156289,164.07793 133.97452,166.263923 131.285523,166.263923 Z" id="Shape"></path>
                <path d="M460.149096,161.383729 C460.149096,181.426636 476.422041,197.745001 496.426229,197.745001 C516.437365,197.745001 532.717259,181.426636 532.717259,161.383729 C532.717259,141.340822 516.437365,125.03638 496.426229,125.03638 C476.422041,125.03638 460.149096,141.340822 460.149096,161.383729 Z M524.719752,161.383729 C524.719752,177.005918 512.025188,189.732015 496.426229,189.732015 C480.82727,189.732015 468.146602,177.005918 468.146602,161.383729 C468.146602,145.747616 480.82727,133.049366 496.426229,133.049366 C512.025188,133.049366 524.719752,145.747616 524.719752,161.383729 Z" id="Shape"></path>
                <path d="M483.557956,161.383729 C483.557956,168.491686 489.325055,174.276908 496.426229,174.276908 C503.527403,174.276908 509.294501,168.498647 509.294501,161.383729 C509.294501,154.26881 503.527403,148.504473 496.426229,148.504473 C489.325055,148.504473 483.557956,154.26881 483.557956,161.383729 Z M501.303943,161.383729 C501.303943,164.07793 499.129122,166.263923 496.426229,166.263923 C493.737232,166.263923 491.555463,164.07793 491.555463,161.383729 C491.555463,158.689528 493.737232,156.503535 496.426229,156.503535 C499.129122,156.503535 501.303943,158.689528 501.303943,161.383729 Z" id="Shape"></path>
                <path d="M656.668183,135.075238 L646.655667,135.075238 C651.172069,128.301445 656.966961,117.141744 654.958899,106.149125 C653.492805,98.1500631 648.253779,91.7591675 639.394682,87.1574442 C609.440512,71.646643 526.359554,52.3834532 479.8823,50.0930342 L455.042087,37.6384456 L454.368101,43.2913947 C453.117405,53.7897287 448.89978,62.5615463 446.905614,66.2373555 C434.919777,66.0981203 417.201584,65.847497 397.197396,65.5620648 C402.095955,58.4541079 407.786622,48.1785502 404.812745,41.8851192 C403.742705,39.601662 401.192675,36.8865756 395.300507,36.8865756 C377.846349,36.8865756 365.90915,59.1363604 363.018652,65.0538563 C345.064216,64.7823477 326.94302,64.5038773 310.760403,64.2532539 L310.760403,9.68697944 L294.549993,9.68697944 L270.446301,0.100635987 L209.315059,49.9050667 C205.667195,49.6126728 196.210544,48.9791526 182.841993,48.9791526 C173.454824,48.9791526 162.32363,49.3272406 150.198826,50.2670782 C148.037902,46.8488541 143.632672,43.0338096 136.197979,43.0338096 C127.901696,43.0338096 117.694626,43.7578326 112.406961,49.3968582 C110.788005,51.1303364 109.787448,53.2467115 109.335808,55.5997863 C72.329102,62.5754698 32.3902088,76.4432956 1.92186387,103.392268 L0.504408375,104.66627 L0.573891488,106.559869 C0.594736422,107.088963 3.47133729,159.615442 67.6320436,162.414069 L70.9116465,162.553304 L71.6829091,159.357857 C71.814927,158.828763 84.9124937,106.392787 113.40057,106.392787 L127.644608,106.302284 C146.981758,106.302284 159.356701,107.464898 171.919247,127.835008 C162.247198,116.09748 147.627951,108.613588 131.292471,108.613588 C102.24853,108.613588 78.624272,132.283572 78.624272,161.383729 C78.624272,190.497809 102.24853,214.153869 131.292471,214.153869 C160.336413,214.153869 183.960671,190.497809 183.960671,161.383729 C183.960671,155.633315 183.001804,150.098716 181.292519,144.905243 C194.695812,167.969554 205.458746,170.796028 223.225578,170.796028 L230.549098,170.754258 L415.561782,170.754258 C417.764397,170.754258 437.42117,170.253011 444.265256,152.535332 L444.758586,151.240445 C444.105445,154.533357 443.744133,157.916772 443.744133,161.383729 C443.744133,190.497809 467.368391,214.153869 496.405384,214.153869 C525.463222,214.153869 549.073583,190.497809 549.073583,161.383729 C549.073583,141.779413 538.317598,124.674369 522.42681,115.575348 C539.179188,122.091556 544.049954,135.165741 546.266466,141.05539 C546.86402,142.670518 547.218384,143.66605 547.815939,144.438805 C547.982699,144.710314 548.239786,145.162828 548.538563,145.747616 C551.422113,151.02463 560.218675,167.057563 580.43826,167.057563 C582.884066,167.057563 585.4202,166.827825 588.01192,166.347464 C614.026397,161.669161 624.038914,159.671136 624.038914,159.671136 L625.324351,159.427474 L627.700674,156.830738 L664.589258,156.830738 L656.668183,135.075238 Z M645.946939,118.729026 L633.47472,118.729026 C630.139531,116.891121 629.250147,113.152656 629.076439,110.381875 L647.197635,110.381875 C647.287963,113.194426 646.829375,115.993054 645.946939,118.729026 Z M482.585193,58.2522169 C487.483752,58.5654961 492.861745,59.1015516 498.455136,59.755957 L498.455136,63.4456898 L481.021823,63.4456898 C481.848672,61.6008234 482.342002,59.8046893 482.585193,58.2522169 Z M461.392843,49.779755 L474.747498,56.4700063 C474.566842,58.1756375 474.024873,60.59833 472.204416,62.6311639 C469.953163,65.1165122 466.26361,66.3765907 461.184394,66.3765907 C460.017078,66.3765907 458.147982,66.369629 455.820298,66.3487437 C457.710238,62.3178847 459.975388,56.567471 461.392843,49.779755 Z M395.279662,44.8995613 C397.093171,44.8995613 397.572604,45.3103051 397.572604,45.3103051 C398.767714,47.141248 394.487554,56.2890006 387.351639,65.4297914 C382.28632,65.353212 377.144569,65.2766327 371.947232,65.2000533 C376.491428,57.0478324 385.364421,44.8995613 395.279662,44.8995613 Z M373.732948,73.2200008 C372.933893,85.8486333 370.55757,123.908575 370.001705,135.548638 C369.550065,145.121058 363.199309,147.905762 361.448334,148.504473 L230.875669,148.504473 L230.875669,97.0361816 C230.875669,78.0027298 243.028265,72.6491364 247.926825,71.2567845 L254.103873,71.3612109 C254.256736,71.3612109 255.827054,71.3890579 258.390981,71.4308285 C258.39793,71.4308285 258.404878,71.4308285 258.411826,71.4308285 C273.434075,71.6814518 325.734014,72.5029395 373.732948,73.2200008 Z M295.786793,17.6860416 L302.755949,17.6860416 L302.755949,64.134904 C285.093342,63.8564336 270.418508,63.6266955 261.983258,63.4944221 L295.786793,17.6860416 Z M271.842912,9.26231208 L287.483561,15.4861255 L252.415434,63.0210224 C236.385679,61.6913263 224.03853,56.6440503 217.673877,53.4068319 L271.842912,9.26231208 Z M136.191031,51.02591 C136.997035,51.02591 137.525107,51.2486864 138.178248,51.3670363 C132.154062,52.0144799 125.99091,52.7872353 119.640153,53.782767 C124.080124,51.0467953 133.015653,51.02591 136.191031,51.02591 Z M19.827662,99.431027 C29.1314508,92.7825462 39.1022775,87.1783295 49.4274681,82.4304092 C48.2184619,95.5045944 44.6678748,107.959183 40.2001107,108.683206 C38.8799315,108.892059 37.4555277,109.156606 35.9963824,109.435076 C30.2362323,110.514149 22.3776923,112.031812 20.0083181,109.442038 C18.667294,107.973106 18.6464491,104.325144 19.827662,99.431027 Z M17.1108723,130.125427 L41.8399121,130.125427 L41.8399121,139.057365 L24.9277225,139.057365 C21.7523442,136.203043 19.1675725,133.167716 17.1108723,130.125427 Z M131.285523,206.161769 C106.65376,206.161769 86.6078817,186.063168 86.6078817,161.383729 C86.6078817,136.70429 106.65376,116.619612 131.285523,116.619612 C155.917287,116.619612 175.963165,136.70429 175.963165,161.383729 C175.963165,186.063168 155.917287,206.161769 131.285523,206.161769 Z M541.117767,161.383729 C541.117767,186.063168 521.064941,206.161769 496.426229,206.161769 C471.794465,206.161769 451.748587,186.063168 451.748587,161.383729 C451.748587,136.70429 471.794465,116.619612 496.426229,116.619612 C521.064941,116.619612 541.117767,136.70429 541.117767,161.383729 Z M621.210951,152.068894 C617.806279,152.737223 607.279587,154.749172 586.615309,158.45979 C584.482178,158.85661 582.418529,159.030654 580.452157,159.030654 C564.957423,159.030654 558.356527,147.007694 555.54941,141.883839 C554.979648,140.839575 554.534956,140.073782 554.409886,139.941508 C554.243127,139.586458 554.027729,139.015594 553.749797,138.284609 C550.595264,129.728606 540.978801,103.726433 499.448744,103.726433 C454.256928,103.726433 443.931737,130.960838 437.740792,147.223509 L436.816666,149.646202 C432.001487,162.10079 418.334158,162.769119 415.256057,162.769119 C415.249108,162.769119 415.235212,162.769119 415.221315,162.769119 L230.54215,162.769119 L223.21863,162.796966 C207.237514,162.796966 198.211657,161.439423 183.522927,132.283572 C167.611295,100.684144 151.060417,98.3171454 127.63766,98.3171454 L113.393622,98.41461 C83.043398,98.41461 68.3755129,141.779413 64.7901843,154.261848 C53.2073494,153.405552 44.0494751,150.739198 36.7468,147.112121 L49.8235218,147.112121 L49.8235218,122.161173 L12.6709014,122.161173 C10.0027499,116.09748 9.04388293,110.806543 8.7173123,108.091456 C9.47467823,107.444013 10.2876306,106.88011 11.0519449,106.24659 C11.1978594,109.838858 12.1636747,112.762797 14.1300468,114.886134 C16.9371645,117.935385 20.8699087,118.896108 25.1917583,118.896108 C29.1522958,118.896108 33.4463521,118.081582 37.4763727,117.301865 C38.8660349,117.030356 40.2140073,116.786695 41.4786,116.577842 C54.5344768,114.440581 57.1748351,88.6054903 57.7098551,78.8520646 C102.338858,60.5078271 151.942853,56.9851766 182.835045,56.9851766 C196.794202,56.9851766 206.459303,57.7022378 209.266421,57.9458994 C211.990159,59.6376071 221.564932,65.0399328 235.857608,68.5068893 C229.367885,73.2200008 222.885111,81.7551185 222.885111,97.0640286 L222.885111,156.517459 L362.476684,156.517459 L362.921376,156.40607 C367.833832,155.208648 377.290484,149.374693 377.943625,135.931534 C378.506438,124.194007 380.931399,85.5423159 381.695713,73.359236 C419.8072,73.9301003 453.582942,74.3895764 461.170497,74.3895764 C466.09685,74.3895764 470.21025,73.3522742 473.559336,71.4586755 L506.417901,71.4586755 L506.417901,60.7654122 C551.991874,66.9822638 612.150353,82.0753594 635.705128,94.2723629 C640.075616,96.5418966 643.06339,99.2500212 644.974176,102.382813 L621.836299,102.382813 L621.308227,105.738381 C621.197054,106.378863 618.931905,121.228297 630.994173,126.407847 L642.479732,126.595814 C639.415527,132.088643 635.983061,135.966343 635.962216,136.022037 L621.210951,152.068894 Z M635.058935,148.817752 L640.3466,143.067338 L651.081741,143.067338 L653.173183,148.817752 L635.058935,148.817752 Z" id="Shape"></path>
                <rect id="Rectangle" x="338.039473" y="81.7342332" width="21.2896257" height="7.99906218"></rect>
            </g>
        </g>
    </g>
</svg>