<?xml version="1.0" encoding="UTF-8"?>
<svg width="557px" height="553px" viewBox="0 0 557 553" version="1.1" xmlns="http://www.w3.org/2000/svg" xmlns:xlink="http://www.w3.org/1999/xlink">
    <!-- Generator: Sketch 53.1 (72631) - https://sketchapp.com -->
    <title>noun_Present_1259711</title>
    <desc>Created with Sketch.</desc>
    <g id="Page-1" stroke="none" stroke-width="1" fill="none" fill-rule="evenodd">
        <g id="Sec-2" transform="translate(-1811.000000, -233.000000)" fill="#000000" fill-rule="nonzero">
            <g id="noun_Present_1259711" transform="translate(1811.000000, 233.000000)">
                <path d="M1.59561999,255.032475 L43.7545931,330.33247 C44.6501155,331.935926 46.1565369,333.122901 47.9267556,333.622679 C48.5445966,333.796214 49.1832637,333.886452 49.8080468,333.886452 C50.9881926,333.886452 52.1544543,333.587973 53.1957594,333.004897 L71.9253674,322.516486 L71.9253674,546.028637 C71.9253674,549.860274 75.0284567,552.970008 78.8674015,552.970008 L549.259632,552.970008 C553.098577,552.970008 556.201666,549.860274 556.201666,546.028637 L556.201666,231.598406 C556.201666,227.766769 553.098577,224.657035 549.259632,224.657035 L246.70496,224.657035 L463.629641,103.210805 C466.975702,101.336635 468.169732,97.10934 466.295382,93.7635991 L424.129467,18.4705461 C423.233945,16.8670894 421.727524,15.6801149 419.957305,15.1803362 C418.187086,14.6666747 416.291911,14.9026813 414.681359,15.8050596 L341.248522,56.9188009 C344.906974,41.2243608 343.011799,23.3086818 332.688994,11.7443574 C322.442552,0.277212293 301.359594,-8.42032577 259.013186,15.2913981 C224.365494,34.6925305 200.047549,65.6371631 194.257892,97.1509882 C191.085383,97.7965357 187.989236,98.8793896 185.066639,100.517553 C182.150985,102.148775 179.714331,104.307542 177.506764,106.667608 C147.642133,95.1171664 108.141959,99.747061 73.7511224,119.002425 C31.3977724,142.714148 27.7879146,165.238898 32.2169324,179.954605 C36.6806603,194.795256 50.9812506,205.769564 66.2745517,210.850648 L4.24053498,245.578328 C0.915300647,247.459439 -0.278729218,251.686734 1.59561999,255.032475 Z M170.203744,118.919128 C166.767437,128.817523 167.343626,140.527617 172.446021,151.425569 L85.5386963,200.084581 C70.5022504,200.459415 49.8219309,190.234775 45.5317538,175.963316 C41.3457072,162.031984 53.7788903,146.108479 80.5543158,131.122059 C110.543903,114.32394 144.393261,109.902287 170.203744,118.919128 Z M240.866709,129.032706 L276.243315,192.213066 L215.618531,226.156371 L180.241925,162.976011 L240.866709,129.032706 Z M191.855949,112.630246 C194.188472,111.325268 196.729256,110.686662 199.325577,110.464538 C199.40194,110.478421 199.457476,110.520069 199.533838,110.533952 C199.790693,110.561717 200.047549,110.5756 200.304404,110.5756 C200.679274,110.5756 201.019434,110.436773 201.380419,110.3743 C209.245744,110.520069 217.430402,115.198553 222.977087,123.125599 L184.532103,144.650791 C179.054838,132.024437 181.949666,118.176401 191.855949,112.630246 Z M321.894131,67.7542813 L235.215893,116.281407 C228.572367,106.167829 218.728562,99.5249371 208.419642,97.3036983 C214.21624,70.6002435 235.576879,44.3202123 265.802496,27.3971494 C292.564037,12.4176704 312.654284,10.1200766 322.345363,20.9763811 C332.293298,32.1381059 330.175978,55.162634 321.894131,67.7542813 Z M450.786878,94.492443 L288.357164,185.431347 L252.980559,122.250986 L415.417215,31.3120827 L450.786878,94.492443 Z M85.8163777,346.068558 L257.964939,346.068558 L257.964939,422.402817 L85.8163777,422.402817 L85.8163777,346.068558 Z M271.849007,238.539777 L348.718151,238.539777 L348.718151,539.073383 L271.849007,539.073383 L271.849007,238.539777 Z M542.32454,422.402817 L362.602219,422.402817 L362.602219,346.068558 L542.32454,346.068558 L542.32454,422.402817 Z M542.32454,238.539777 L542.32454,332.185816 L362.602219,332.185816 L362.602219,238.539777 L542.32454,238.539777 Z M542.32454,539.080324 L362.602219,539.080324 L362.602219,436.285559 L542.32454,436.285559 L542.32454,539.080324 Z M85.8163777,539.080324 L85.8163777,436.285559 L257.964939,436.285559 L257.964939,539.080324 L85.8163777,539.080324 Z M85.8163777,314.735209 L221.908014,238.539777 L257.964939,238.539777 L257.964939,332.185816 L85.8163777,332.185816 L85.8163777,314.735209 Z M17.1041242,254.303631 L168.135018,169.750789 L203.511624,232.931149 L52.4737879,317.490933 L17.1041242,254.303631 Z" id="Shape"></path>
            </g>
        </g>
    </g>
</svg>