<?xml version="1.0" encoding="UTF-8"?>
<svg width="387px" height="561px" viewBox="0 0 387 561" version="1.1" xmlns="http://www.w3.org/2000/svg" xmlns:xlink="http://www.w3.org/1999/xlink">
    <!-- Generator: Sketch 53.1 (72631) - https://sketchapp.com -->
    <title>noun_List_27889</title>
    <desc>Created with Sketch.</desc>
    <g id="Page-1" stroke="none" stroke-width="1" fill="none" fill-rule="evenodd">
        <g id="Sec-2" transform="translate(-1084.000000, -240.000000)">
            <g id="noun_List_27889" transform="translate(1084.000000, 240.000000)">
                <path d="M386.219463,90.578125 C386.219463,87.4984687 384.63391,84.7928125 382.229254,83.2266875 L289.477373,3.72246875 C288.611463,2.968625 287.581731,2.4894375 286.528597,2.1388125 C284.984,0.82396875 283.018149,0 280.835821,0 L8.7761194,0 C3.92585075,0 0,3.927 0,8.765625 L0,552.234375 C0,557.073 3.92585075,561 8.7761194,561 L377.373134,561 C382.217552,561 386.149254,557.073 386.149254,552.234375 L386.149254,93.5 C386.149254,93.1143125 386.079045,92.7344687 386.032239,92.3604687 C386.155104,91.7877812 386.219463,91.185875 386.219463,90.578125 Z M17.5522388,543.46875 L17.5522388,17.53125 L274.985075,17.53125 L274.985075,90.578125 C274.985075,95.41675 278.916776,99.34375 283.761194,99.34375 L368.597015,99.34375 L368.597015,543.46875 L17.5522388,543.46875 Z" id="Shape" fill="#000000" fill-rule="nonzero"></path>
                <path d="M125.791045,195.765625 L318.865672,195.765625" id="Path" stroke="#000000" stroke-width="11.7014925" stroke-linecap="round" stroke-linejoin="round"></path>
                <path d="M125.791045,283.421875 L318.865672,283.421875" id="Path" stroke="#000000" stroke-width="11.7014925" stroke-linecap="round" stroke-linejoin="round"></path>
                <path d="M125.791045,365.234375 L318.865672,365.234375" id="Path" stroke="#000000" stroke-width="11.7014925" stroke-linecap="round" stroke-linejoin="round"></path>
                <polyline id="Path" stroke="#000000" stroke-width="11.7014925" stroke-linecap="round" stroke-linejoin="round" points="62.4157612 191.382813 74.3571343 203.309906 104.096478 173.606125"></polyline>
                <polyline id="Path" stroke="#000000" stroke-width="11.7014925" stroke-linecap="round" stroke-linejoin="round" points="62.4157612 279.039062 74.3571343 290.966156 104.096478 261.262375"></polyline>
                <polyline id="Path" stroke="#000000" stroke-width="11.7014925" stroke-linecap="round" stroke-linejoin="round" points="62.4157612 360.851562 74.3571343 372.778656 104.096478 343.074875"></polyline>
            </g>
        </g>
    </g>
</svg>