<svg xmlns="http://www.w3.org/2000/svg" xmlns:xlink="http://www.w3.org/1999/xlink" version="1.1" x="0px" y="0px" viewBox="0 0 100 125" style="enable-background:new 0 0 100 100;" xml:space="preserve"><path d="M9.994,46.885l6.073,10.848c0.129,0.231,0.346,0.402,0.601,0.474c0.089,0.025,0.181,0.038,0.271,0.038  c0.17,0,0.338-0.043,0.488-0.127l2.698-1.511v32.2c0,0.552,0.447,1,1,1h67.76c0.553,0,1-0.448,1-1V43.509c0-0.552-0.447-1-1-1  H45.302L76.55,25.013c0.482-0.27,0.654-0.879,0.384-1.361L70.86,12.805c-0.129-0.231-0.346-0.402-0.601-0.474  c-0.255-0.074-0.528-0.04-0.76,0.09l-10.578,5.923c0.527-2.261,0.254-4.842-1.233-6.508c-1.476-1.652-4.513-2.905-10.613,0.511  c-4.991,2.795-8.494,7.253-9.328,11.793c-0.457,0.093-0.903,0.249-1.324,0.485c-0.42,0.235-0.771,0.546-1.089,0.886  c-4.302-1.664-9.992-0.997-14.946,1.777c-6.101,3.416-6.621,6.661-5.983,8.781c0.643,2.138,2.703,3.719,4.906,4.451l-8.936,5.003  C9.896,45.794,9.724,46.403,9.994,46.885z M34.282,27.276c-0.495,1.426-0.412,3.113,0.323,4.683l-12.519,7.01  c-2.166,0.054-5.145-1.419-5.763-3.475c-0.603-2.007,1.188-4.301,5.045-6.46C25.688,26.614,30.564,25.977,34.282,27.276z   M44.461,28.733l5.096,9.102l-8.733,4.89l-5.096-9.102L44.461,28.733z M37.401,26.37c0.336-0.188,0.702-0.28,1.076-0.312  c0.011,0.002,0.019,0.008,0.03,0.01c0.037,0.004,0.074,0.006,0.111,0.006c0.054,0,0.103-0.02,0.155-0.029  c1.133,0.021,2.312,0.695,3.111,1.837l-5.538,3.101C35.557,29.164,35.974,27.169,37.401,26.37z M56.133,19.905l-12.486,6.991  c-0.957-1.457-2.375-2.414-3.86-2.734c0.835-3.847,3.912-7.633,8.266-10.071c3.855-2.158,6.749-2.489,8.145-0.925  C57.631,14.774,57.326,18.091,56.133,19.905z M74.7,23.757L51.302,36.858l-5.096-9.102l23.399-13.101L74.7,23.757z M22.126,60  h24.798v10.997H22.126V60z M48.924,44.509h11.073v43.296H48.924V44.509z M87.886,70.997H61.997V60h25.889V70.997z M87.886,44.509V58  H61.997V44.509H87.886z M87.886,87.806H61.997V72.997h25.889V87.806z M22.126,87.806V72.997h24.798v14.809H22.126z M22.126,55.486  L41.73,44.509h5.194V58H22.126V55.486z M12.228,46.78l21.756-12.181l5.096,9.102L17.323,55.883L12.228,46.78z"/><text x="0" y="115" fill="#000000" font-size="5px" font-weight="bold" font-family="'Helvetica Neue', Helvetica, Arial-Unicode, Arial, Sans-serif">Created by Made by Made</text><text x="0" y="120" fill="#000000" font-size="5px" font-weight="bold" font-family="'Helvetica Neue', Helvetica, Arial-Unicode, Arial, Sans-serif">from the Noun Project</text></svg>