<svg xmlns="http://www.w3.org/2000/svg" xmlns:xlink="http://www.w3.org/1999/xlink" version="1.1" x="0px" y="0px" viewBox="0 0 100 125" enable-background="new 0 0 100 100" xml:space="preserve"><path d="M21.035,52.572c-2.879,0-5.221,2.342-5.221,5.221s2.342,5.223,5.221,5.223s5.221-2.344,5.221-5.223  S23.914,52.572,21.035,52.572z M21.035,61.865c-2.245,0-4.072-1.828-4.072-4.072c0-2.246,1.827-4.07,4.072-4.07  s4.072,1.824,4.072,4.07C25.107,60.037,23.28,61.865,21.035,61.865z"/><path d="M21.035,55.943c-1.021,0-1.851,0.828-1.851,1.85s0.831,1.852,1.851,1.852s1.851-0.83,1.851-1.852  S22.055,55.943,21.035,55.943z M21.035,58.494c-0.387,0-0.702-0.314-0.702-0.701s0.314-0.701,0.702-0.701  c0.388,0,0.702,0.314,0.702,0.701C21.736,58.18,21.422,58.494,21.035,58.494z"/><path d="M68.365,57.793c0,2.879,2.342,5.223,5.221,5.223c2.88,0,5.223-2.344,5.223-5.223s-2.343-5.221-5.223-5.221  C70.707,52.572,68.365,54.914,68.365,57.793z M77.658,57.793c0,2.244-1.827,4.072-4.072,4.072s-4.07-1.828-4.07-4.072  c0-2.246,1.825-4.07,4.07-4.07S77.658,55.547,77.658,57.793z"/><path d="M71.734,57.793c0,1.021,0.83,1.852,1.852,1.852s1.852-0.83,1.852-1.852s-0.83-1.85-1.852-1.85S71.734,56.771,71.734,57.793z   M74.288,57.793c0,0.387-0.313,0.701-0.702,0.701c-0.387,0-0.701-0.314-0.701-0.701s0.314-0.701,0.701-0.701  C73.975,57.092,74.288,57.406,74.288,57.793z"/><path d="M96.648,54.014h-1.441c0.65-0.973,1.484-2.576,1.195-4.155c-0.211-1.149-0.965-2.067-2.24-2.728  c-4.311-2.228-16.268-4.995-22.957-5.324l-3.575-1.789l-0.097,0.812c-0.18,1.508-0.787,2.768-1.074,3.296  c-1.725-0.02-4.275-0.056-7.154-0.097c0.705-1.021,1.524-2.497,1.096-3.401c-0.154-0.328-0.521-0.718-1.369-0.718  c-2.512,0-4.23,3.196-4.646,4.046c-2.584-0.039-5.192-0.079-7.521-0.115v-7.838h-2.333l-3.469-1.377l-8.798,7.154  c-0.525-0.042-1.886-0.133-3.81-0.133c-1.351,0-2.953,0.05-4.698,0.185c-0.311-0.491-0.945-1.039-2.015-1.039  c-1.194,0-2.663,0.104-3.424,0.914c-0.233,0.249-0.377,0.553-0.442,0.891C12.55,43.6,6.802,45.592,2.417,49.463l-0.204,0.183  l0.01,0.272c0.003,0.076,0.417,7.621,9.651,8.023l0.472,0.02l0.111-0.459c0.019-0.076,1.904-7.608,6.004-7.608l2.05-0.013  c2.783,0,4.564,0.167,6.372,3.093c-1.392-1.686-3.496-2.761-5.847-2.761c-4.18,0-7.58,3.4-7.58,7.58c0,4.182,3.4,7.58,7.58,7.58  c4.18,0,7.58-3.398,7.58-7.58c0-0.826-0.138-1.621-0.384-2.367c1.929,3.313,3.478,3.719,6.035,3.719l1.054-0.006h26.627  c0.317,0,3.146-0.072,4.131-2.617l0.071-0.186c-0.094,0.473-0.146,0.959-0.146,1.457c0,4.182,3.4,7.58,7.579,7.58  c4.182,0,7.58-3.398,7.58-7.58c0-2.816-1.548-5.273-3.835-6.58c2.411,0.936,3.112,2.814,3.431,3.66  c0.086,0.232,0.137,0.375,0.223,0.486c0.024,0.039,0.061,0.104,0.104,0.188c0.415,0.758,1.681,3.061,4.591,3.061  c0.352,0,0.717-0.033,1.09-0.102c3.744-0.672,5.185-0.959,5.185-0.959l0.185-0.035l0.342-0.373h5.309L96.648,54.014z M95.105,51.666  h-1.795c-0.48-0.264-0.608-0.801-0.633-1.199h2.608C95.298,50.871,95.232,51.273,95.105,51.666z M71.594,42.979  c0.705,0.045,1.479,0.122,2.284,0.216v0.53h-2.509C71.488,43.46,71.559,43.202,71.594,42.979z M68.544,41.762l1.922,0.961  c-0.026,0.245-0.104,0.593-0.366,0.885c-0.324,0.357-0.855,0.538-1.586,0.538c-0.168,0-0.437-0.001-0.772-0.004  C68.014,43.563,68.34,42.737,68.544,41.762z M59.029,41.061c0.261,0,0.33,0.059,0.33,0.059c0.172,0.263-0.444,1.577-1.471,2.89  c-0.729-0.011-1.469-0.022-2.217-0.033C56.325,42.806,57.602,41.061,59.029,41.061z M55.928,45.129  c-0.115,1.814-0.457,7.281-0.537,8.953c-0.065,1.375-0.979,1.775-1.231,1.861H35.368V48.55c0-2.734,1.749-3.503,2.454-3.703  l0.889,0.015c0.022,0,0.248,0.004,0.617,0.01c0.001,0,0.002,0,0.003,0C41.493,44.908,49.02,45.026,55.928,45.129z M44.71,37.152  h1.003v6.672c-2.542-0.04-4.654-0.073-5.868-0.092L44.71,37.152z M41.264,35.942l2.251,0.894l-5.047,6.828  c-2.307-0.191-4.084-0.916-5-1.381L41.264,35.942z M21.741,41.941c0.116,0,0.192,0.032,0.286,0.049  c-0.867,0.093-1.754,0.204-2.668,0.347C19.998,41.944,21.284,41.941,21.741,41.941z M4.994,48.894  c1.339-0.955,2.774-1.76,4.26-2.442c-0.174,1.878-0.685,3.667-1.328,3.771c-0.19,0.03-0.395,0.068-0.605,0.108  c-0.829,0.155-1.96,0.373-2.301,0.001C4.827,50.121,4.824,49.597,4.994,48.894z M4.603,53.303h3.559v1.283H5.728  C5.271,54.176,4.899,53.74,4.603,53.303z M21.035,64.225c-3.545,0-6.43-2.887-6.43-6.432s2.885-6.43,6.43-6.43s6.43,2.885,6.43,6.43  S24.58,64.225,21.035,64.225z M80.018,57.793c0,3.545-2.886,6.432-6.432,6.432c-3.545,0-6.43-2.887-6.43-6.432s2.885-6.43,6.43-6.43  C77.132,51.363,80.018,54.248,80.018,57.793z M91.545,56.455c-0.49,0.096-2.005,0.385-4.979,0.918  c-0.307,0.057-0.604,0.082-0.887,0.082c-2.23,0-3.18-1.727-3.584-2.463c-0.082-0.15-0.146-0.26-0.164-0.279  c-0.024-0.051-0.055-0.133-0.095-0.238c-0.454-1.229-1.838-4.964-7.815-4.964c-6.504,0-7.99,3.912-8.881,6.248l-0.133,0.348  c-0.693,1.789-2.66,1.885-3.103,1.885c-0.001,0-0.003,0-0.005,0H35.32l-1.054,0.004c-2.3,0-3.599-0.195-5.713-4.383  c-2.29-4.539-4.672-4.879-8.043-4.879l-2.05,0.014c-4.368,0-6.479,6.229-6.995,8.022c-1.667-0.123-2.985-0.506-4.036-1.027h1.882  v-3.584H3.964c-0.384-0.871-0.522-1.631-0.569-2.021c0.109-0.093,0.226-0.174,0.336-0.265c0.021,0.516,0.16,0.936,0.443,1.241  c0.404,0.438,0.97,0.576,1.592,0.576c0.57,0,1.188-0.117,1.768-0.229c0.2-0.039,0.394-0.074,0.576-0.104  c1.879-0.307,2.259-4.018,2.336-5.419c6.423-2.635,13.562-3.141,18.008-3.141c2.009,0,3.4,0.103,3.804,0.138  c0.392,0.243,1.77,1.019,3.827,1.517c-0.934,0.677-1.867,1.903-1.867,4.102v8.54h20.09l0.064-0.016  c0.707-0.172,2.068-1.01,2.162-2.941c0.081-1.686,0.43-7.238,0.54-8.988c5.485,0.082,10.346,0.148,11.438,0.148  c0.709,0,1.301-0.149,1.783-0.421h4.729V43.34c6.559,0.893,15.217,3.061,18.607,4.813c0.629,0.326,1.059,0.715,1.334,1.165h-3.33  L91.559,49.8c-0.016,0.092-0.342,2.225,1.394,2.969l1.653,0.027c-0.441,0.789-0.935,1.346-0.938,1.354L91.545,56.455z   M93.538,55.988l0.761-0.826h1.545l0.301,0.826H93.538z"/><rect x="50.791" y="46.352" width="3.064" height="1.149"/><text x="0" y="115" fill="#000000" font-size="5px" font-weight="bold" font-family="'Helvetica Neue', Helvetica, Arial-Unicode, Arial, Sans-serif">Created by Iconic</text><text x="0" y="120" fill="#000000" font-size="5px" font-weight="bold" font-family="'Helvetica Neue', Helvetica, Arial-Unicode, Arial, Sans-serif">from the Noun Project</text></svg>